<svg width="80" height="80" viewBox="0 0 80 80" fill="none" xmlns="http://www.w3.org/2000/svg">
<path d="M39.8438 25.0954C42.2063 25.0954 44.4703 23.9047 46.2188 21.7438C47.8156 19.7704 48.7313 17.2813 48.7313 14.9125C48.7313 10.1407 44.9109 6.54224 39.8438 6.54224C34.7766 6.54224 30.9563 10.136 30.9563 14.9125C30.9563 17.2813 31.8719 19.7704 33.4688 21.7438C35.2172 23.9063 37.4813 25.0954 39.8438 25.0954ZM39.8438 9.12036C43.5 9.12036 46.1531 11.5563 46.1531 14.9125C46.1531 19.1313 42.7016 22.5172 39.8438 22.5172C36.3484 22.5172 33.5344 18.3563 33.5344 14.9125C33.5344 11.5625 36.1875 9.12036 39.8438 9.12036V9.12036Z" fill="#151515"/>
<path d="M29.3266 37.4672L28.4219 50.3719C28.41 50.5407 28.4314 50.7103 28.4851 50.8709C28.5387 51.0315 28.6234 51.1799 28.7344 51.3077C28.8454 51.4355 28.9805 51.5403 29.132 51.6159C29.2834 51.6915 29.4483 51.7365 29.6172 51.7484H29.7078C30.0339 51.7481 30.3478 51.6243 30.5863 51.402C30.8249 51.1796 30.9705 50.8753 30.9938 50.55L31.8984 37.6562C31.9103 37.4874 31.8889 37.3178 31.8352 37.1572C31.7816 36.9967 31.6969 36.8482 31.5859 36.7204C31.4749 36.5926 31.3398 36.4879 31.1883 36.4122C31.0369 36.3366 30.872 36.2916 30.7031 36.2797C30.5343 36.2678 30.3647 36.2893 30.2041 36.3429C30.0436 36.3965 29.8951 36.4812 29.7673 36.5922C29.6395 36.7032 29.5348 36.8383 29.4591 36.9898C29.3835 37.1412 29.3385 37.3061 29.3266 37.475V37.4672Z" fill="#151515"/>
<path d="M57.3266 51.747C57.6763 51.716 57.9995 51.5476 58.2253 51.2787C58.4511 51.0099 58.5612 50.6624 58.5312 50.3126C58.5312 50.3126 57.1687 40.5423 56.9687 37.2642C56.5984 31.3782 53.0031 26.6563 47.3859 25.797C45.4109 25.4938 41.8234 25.2657 39.9484 25.2642C37.3889 25.3085 34.8334 25.4853 32.2922 25.7938C29.6576 26.1545 27.2446 27.4627 25.5047 29.4735C23.6766 31.5845 22.8594 34.2829 22.6922 37.2704C22.5047 40.5517 21.2625 50.3267 21.2625 50.3267C21.2416 50.4961 21.2545 50.6681 21.3006 50.8325C21.3467 50.9969 21.4249 51.1505 21.5309 51.2844C21.6368 51.4183 21.7683 51.5299 21.9177 51.6126C22.0671 51.6952 22.2315 51.7474 22.4012 51.766C22.5709 51.7846 22.7427 51.7694 22.9065 51.7211C23.0702 51.6728 23.2228 51.5924 23.3553 51.4847C23.4877 51.3769 23.5975 51.2439 23.6781 51.0934C23.7587 50.9429 23.8087 50.7779 23.825 50.6079C23.825 50.6079 25.0859 40.7267 25.2656 37.4126C25.5219 32.7157 28.3016 28.9407 32.6437 28.3501C35.0673 28.0557 37.5044 27.8868 39.9453 27.8438C41.6922 27.8438 45.1594 28.0657 46.9937 28.347C49.0106 28.6523 50.8546 29.6606 52.2 31.1938C53.6312 32.8376 54.2516 35.0454 54.3875 37.4204C54.5859 40.7392 55.9703 50.622 55.9703 50.622C56.0204 50.9426 56.1859 51.2338 56.4357 51.441C56.6854 51.6481 57.0022 51.757 57.3266 51.747V51.747Z" fill="#151515"/>
<path d="M48.9469 36.2719C48.7772 36.2835 48.6114 36.3287 48.4592 36.4047C48.3071 36.4807 48.1714 36.5861 48.0602 36.7148C47.9489 36.8435 47.8642 36.993 47.811 37.1545C47.7577 37.3161 47.737 37.4866 47.75 37.6562L48.6563 50.5594C48.6788 50.8848 48.8238 51.1895 49.0622 51.4122C49.3005 51.6349 49.6144 51.759 49.9406 51.7594H50.0328C50.3737 51.735 50.691 51.5763 50.9151 51.3182C51.1392 51.0602 51.2518 50.7238 51.2281 50.3828L50.3219 37.4781C50.311 37.3086 50.2667 37.1429 50.1917 36.9904C50.1166 36.838 50.0122 36.7019 49.8845 36.5899C49.7568 36.4778 49.6083 36.3921 49.4474 36.3375C49.2865 36.2829 49.1164 36.2606 48.9469 36.2719V36.2719Z" fill="#151515"/>
<path d="M48.0687 63.4188L54.2687 57.375C54.4409 57.2071 54.5626 56.9944 54.6203 56.761C54.6779 56.5275 54.669 56.2826 54.5948 56.0539C54.5205 55.8252 54.3837 55.6219 54.1999 55.4668C54.0161 55.3118 53.7926 55.2113 53.5547 55.1766L44.9875 53.9266L41.1562 46.1688C41.0499 45.9529 40.8852 45.7711 40.6808 45.644C40.4765 45.5169 40.2406 45.4496 40 45.4496C39.7593 45.4496 39.5235 45.5169 39.3192 45.644C39.1148 45.7711 38.9501 45.9529 38.8437 46.1688L35.0125 53.9313L26.4453 55.1813C26.2074 55.2159 25.9839 55.3165 25.8001 55.4715C25.6163 55.6266 25.4795 55.8299 25.4052 56.0586C25.331 56.2873 25.3221 56.5322 25.3797 56.7657C25.4373 56.9991 25.5591 57.2118 25.7312 57.3797L31.9312 63.4235L30.4687 71.95C30.4274 72.1877 30.4535 72.4323 30.5443 72.6559C30.635 72.8795 30.7867 73.0731 30.9821 73.2148C31.1774 73.3564 31.4086 73.4404 31.6494 73.4571C31.8901 73.4738 32.1307 73.4226 32.3437 73.3094L40 69.2813L47.6562 73.3094C47.8414 73.4063 48.0472 73.4572 48.2562 73.4578C48.444 73.4575 48.6293 73.4163 48.7995 73.337C48.9696 73.2578 49.1204 73.1423 49.2414 72.9988C49.3623 72.8552 49.4505 72.687 49.4997 72.5059C49.549 72.3247 49.5581 72.135 49.5266 71.95L48.0687 63.4188ZM39.4 66.6844C37.9031 67.4469 33.45 69.8094 33.45 69.8094L34.5859 63.1828C34.6213 62.9769 34.606 62.7655 34.5415 62.5668C34.477 62.3681 34.3652 62.1881 34.2156 62.0422L29.4016 57.3547L36.0547 56.3875C36.2614 56.3573 36.4576 56.2775 36.6267 56.1547C36.7957 56.032 36.9324 55.87 37.025 55.6828L39.9937 49.6531L42.9625 55.6828C43.0551 55.87 43.1918 56.032 43.3608 56.1547C43.5298 56.2775 43.7261 56.3573 43.9328 56.3875L50.5859 57.3547L45.7719 62.0422C45.6223 62.1881 45.5105 62.3681 45.446 62.5668C45.3815 62.7655 45.3662 62.9769 45.4016 63.1828L46.5375 69.8094C46.5375 69.8094 42.0844 67.4438 40.5875 66.6844C40.4051 66.5859 40.201 66.5344 39.9937 66.5344C39.7865 66.5344 39.5824 66.5859 39.4 66.6844Z" fill="#151515"/>
<path d="M75.4109 59.0954L69.1469 58.1845L66.3453 52.5095C66.2392 52.2936 66.0747 52.1117 65.8704 51.9845C65.6662 51.8573 65.4304 51.7899 65.1898 51.7899C64.9492 51.7899 64.7135 51.8573 64.5092 51.9845C64.305 52.1117 64.1405 52.2936 64.0344 52.5095L61.2328 58.1845L54.9687 59.0954C54.7308 59.1301 54.5073 59.2307 54.3235 59.3857C54.1397 59.5407 54.003 59.7441 53.9287 59.9728C53.8544 60.2015 53.8456 60.4464 53.9032 60.6798C53.9608 60.9133 54.0825 61.126 54.2547 61.2939L58.7859 65.7126L57.7156 71.9501C57.6742 72.1878 57.7004 72.4324 57.7911 72.656C57.8819 72.8796 58.0336 73.0732 58.2289 73.2149C58.4243 73.3565 58.6555 73.4405 58.8962 73.4572C59.137 73.4739 59.3775 73.4227 59.5906 73.3095L65.1922 70.3642L70.7953 73.3095C70.9805 73.4064 71.1863 73.4573 71.3953 73.4579C71.583 73.4576 71.7684 73.4164 71.9385 73.3371C72.1087 73.2579 72.2595 73.1424 72.3804 72.9989C72.5014 72.8553 72.5895 72.6871 72.6388 72.506C72.6881 72.3248 72.6972 72.1351 72.6656 71.9501L71.5953 65.7126L76.1266 61.2939C76.2987 61.126 76.4205 60.9133 76.4781 60.6798C76.5357 60.4464 76.5268 60.2015 76.4526 59.9728C76.3783 59.7441 76.2415 59.5407 76.0577 59.3857C75.8739 59.2307 75.6504 59.1301 75.4125 59.0954H75.4109ZM64.5906 67.7673C63.6078 68.261 60.6984 69.8126 60.6984 69.8126L61.4422 65.4798C61.4775 65.2739 61.4623 65.0625 61.3977 64.8638C61.3332 64.6651 61.2214 64.4851 61.0719 64.3392L57.9234 61.2704L62.2734 60.6454C62.4804 60.6155 62.677 60.5355 62.846 60.4124C63.0151 60.2894 63.1516 60.1269 63.2437 59.9392L65.1891 55.9985L67.1344 59.9392C67.2271 60.1268 67.3639 60.2891 67.5332 60.4121C67.7025 60.5351 67.8992 60.6152 68.1062 60.6454L72.4547 61.2704L69.3078 64.3392C69.1581 64.4849 69.0461 64.6649 68.9815 64.8637C68.917 65.0624 68.9019 65.2739 68.9375 65.4798L69.6875 69.8126C69.6875 69.8126 66.7797 68.261 65.7969 67.7673C65.6115 67.6675 65.4043 67.6152 65.1937 67.6152C64.9832 67.6152 64.776 67.6675 64.5906 67.7673V67.7673Z" fill="#151515"/>
<path d="M25.0312 59.0954L18.7672 58.1845L15.9656 52.5095C15.8595 52.2936 15.695 52.1117 15.4908 51.9845C15.2865 51.8573 15.0508 51.7899 14.8102 51.7899C14.5696 51.7899 14.3338 51.8573 14.1296 51.9845C13.9253 52.1117 13.7608 52.2936 13.6547 52.5095L10.8531 58.1845L4.58906 59.0954C4.35112 59.1301 4.12763 59.2307 3.94384 59.3857C3.76004 59.5407 3.62328 59.7441 3.549 59.9728C3.47472 60.2015 3.46588 60.4464 3.52349 60.6798C3.5811 60.9133 3.70286 61.126 3.875 61.2939L8.40625 65.7126L7.34375 71.9501C7.30235 72.1878 7.32852 72.4324 7.41927 72.656C7.51002 72.8796 7.6617 73.0732 7.85707 73.2149C8.05243 73.3565 8.28363 73.4405 8.52436 73.4572C8.76509 73.4739 9.00567 73.4227 9.21875 73.3095L14.8219 70.3642L20.4234 73.3095C20.6086 73.4064 20.8144 73.4573 21.0234 73.4579C21.2111 73.4576 21.3965 73.4164 21.5667 73.3371C21.7368 73.2579 21.8876 73.1424 22.0086 72.9989C22.1295 72.8553 22.2177 72.6871 22.2669 72.506C22.3162 72.3248 22.3253 72.1351 22.2937 71.9501L21.2234 65.7126L25.7547 61.2939C25.9268 61.126 26.0486 60.9133 26.1062 60.6798C26.1638 60.4464 26.155 60.2015 26.0807 59.9728C26.0064 59.7441 25.8696 59.5407 25.6859 59.3857C25.5021 59.2307 25.2786 59.1301 25.0406 59.0954H25.0312ZM14.2188 67.7673L10.3203 69.8126L11.0625 65.4798C11.0981 65.2739 11.083 65.0624 11.0184 64.8637C10.9539 64.6649 10.8419 64.4849 10.6922 64.3392L7.54531 61.2704L11.8937 60.6454C12.1008 60.6152 12.2975 60.5351 12.4668 60.4121C12.636 60.2891 12.7729 60.1268 12.8656 59.9392L14.8109 55.9985L16.7562 59.9392C16.8484 60.1269 16.9849 60.2894 17.154 60.4124C17.323 60.5355 17.5196 60.6155 17.7266 60.6454L22.0766 61.2704L18.9281 64.3392C18.7786 64.4851 18.6668 64.6651 18.6023 64.8638C18.5377 65.0625 18.5225 65.2739 18.5578 65.4798L19.3016 69.8126L15.4094 67.7673C15.2302 67.6576 15.0242 67.5996 14.8141 67.5996C14.604 67.5996 14.398 67.6576 14.2188 67.7673V67.7673Z" fill="#151515"/>
</svg>
