<svg width="81" height="80" viewBox="0 0 81 80" fill="none" xmlns="http://www.w3.org/2000/svg">
<g clip-path="url(#clip0_1551_402)">
<mask id="path-1-inside-1_1551_402" fill="white">
<path d="M2.84336 80C2.22204 79.9994 1.62632 79.7524 1.18698 79.313C0.747633 78.8737 0.500563 78.278 0.5 77.6566V75.3119C0.499401 72.7395 1.2155 70.2178 2.56797 68.0297C3.87997 65.9161 5.71774 64.1788 7.90177 62.9876C6.6443 61.655 5.8049 59.9831 5.48733 58.1785C5.16977 56.374 5.38795 54.516 6.11492 52.8341C6.84189 51.1522 8.04577 49.7202 9.57776 48.7152C11.1098 47.7101 12.9027 47.176 14.7349 47.1788C16.5672 47.1817 18.3585 47.7214 19.8873 48.7312C21.4161 49.7411 22.6156 51.1768 23.3373 52.861C24.059 54.5451 24.2714 56.4038 23.9482 58.2073C23.625 60.0108 22.7804 61.6801 21.5188 63.0089C23.0411 63.8524 24.394 64.9708 25.5089 66.3073C27.0222 62.9321 29.6223 60.1611 32.8943 58.4361C31.0709 56.8806 29.7682 54.8033 29.1621 52.4844C28.5559 50.1655 28.6753 47.7165 29.5042 45.4676C30.3331 43.2187 31.8317 41.278 33.7979 39.9073C35.764 38.5365 38.1032 37.8016 40.5 37.8016C42.8968 37.8016 45.236 38.5365 47.2021 39.9073C49.1683 41.278 50.6669 43.2187 51.4958 45.4676C52.3247 47.7165 52.4441 50.1655 51.8379 52.4844C51.2318 54.8033 49.9291 56.8806 48.1057 58.4361C51.3778 60.1599 53.9781 62.9304 55.4912 66.3051C56.6063 64.9692 57.9594 63.8516 59.4819 63.0089C58.2203 61.6799 57.3757 60.0103 57.0527 58.2066C56.7296 56.4028 56.9422 54.5439 57.6642 52.8597C58.3862 51.1755 59.5859 49.7397 61.1151 48.73C62.6442 47.7202 64.4358 47.1807 66.2682 47.1781C68.1007 47.1756 69.8937 47.71 71.4257 48.7155C72.9577 49.721 74.1614 51.1533 74.8882 52.8355C75.6149 54.5177 75.8327 56.376 75.5147 58.1807C75.1967 59.9853 74.3569 61.6572 73.0989 62.9897C75.325 64.1902 77.1869 65.9678 78.4891 68.1359C79.7914 70.304 80.486 72.7827 80.5 75.3119V77.6566C80.4994 78.278 80.2524 78.8737 79.813 79.313C79.3737 79.7524 78.778 79.9994 78.1566 80H2.84336ZM56.9064 75.3119H75.809C75.8096 74.0769 75.5627 72.8543 75.0827 71.7163C74.6027 70.5784 73.8996 69.5482 73.0147 68.6867C71.2203 66.9169 68.7988 65.9285 66.2784 65.937C63.7933 65.9404 61.411 66.9292 59.6541 68.6867C57.8972 70.4442 56.909 72.8268 56.9064 75.3119ZM28.7811 72.9685V75.3119H52.2147V72.9685C52.2388 71.4145 51.9536 69.8712 51.3757 68.4285C50.7977 66.9858 49.9385 65.6724 48.8481 64.5649C47.7577 63.4575 46.4579 62.578 45.0243 61.9776C43.5907 61.3773 42.0521 61.0681 40.4979 61.0681C38.9437 61.0681 37.405 61.3773 35.9715 61.9776C34.5379 62.578 33.2381 63.4575 32.1477 64.5649C31.0573 65.6724 30.1981 66.9858 29.6201 68.4285C29.0421 69.8712 28.7569 71.4145 28.7811 72.9685ZM5.18743 75.3119H24.0901C24.0865 72.8273 23.0981 70.4454 21.3415 68.6883C19.5849 66.9311 17.2034 65.942 14.7188 65.9377C12.2128 65.9202 9.80214 66.8972 8.0155 68.6545C6.22886 70.4118 5.21207 72.8059 5.18814 75.3119H5.18743ZM61.5973 56.5664C61.5975 57.4935 61.8725 58.3997 62.3877 59.1705C62.9029 59.9412 63.6351 60.5419 64.4916 60.8966C65.3482 61.2512 66.2907 61.3439 67.2 61.1629C68.1092 60.9819 68.9443 60.5353 69.5998 59.8797C70.2552 59.224 70.7016 58.3887 70.8823 57.4794C71.063 56.5701 70.97 55.6277 70.6151 54.7712C70.2602 53.9147 69.6593 53.1828 68.8884 52.6678C68.1175 52.1529 67.2112 51.8781 66.2841 51.8782C65.0413 51.8797 63.8499 52.3742 62.9712 53.2531C62.0926 54.132 61.5985 55.3236 61.5973 56.5664ZM10.0342 56.5664C10.0342 57.4936 10.3091 58.4 10.8243 59.171C11.3394 59.9419 12.0716 60.5428 12.9282 60.8976C13.7849 61.2525 14.7275 61.3453 15.6369 61.1644C16.5463 60.9835 17.3817 60.537 18.0373 59.8814C18.693 59.2257 19.1395 58.3904 19.3204 57.481C19.5013 56.5716 19.4084 55.6289 19.0536 54.7723C18.6987 53.9156 18.0979 53.1835 17.3269 52.6683C16.5559 52.1532 15.6495 51.8782 14.7223 51.8782C13.4788 51.8786 12.2863 52.3726 11.4067 53.2516C10.5271 54.1306 10.0325 55.3229 10.0313 56.5664H10.0342ZM33.4727 49.5349C33.4733 50.9256 33.8863 52.285 34.6594 53.441C35.4326 54.5971 36.5312 55.4979 37.8164 56.0295C39.1015 56.5612 40.5154 56.6997 41.8793 56.4278C43.2432 56.1558 44.4959 55.4855 45.4788 54.5016C46.4617 53.5176 47.1308 52.2643 47.4014 50.9002C47.672 49.536 47.532 48.1222 46.999 46.8376C46.4661 45.553 45.5642 44.4553 44.4074 43.6833C43.2505 42.9113 41.8908 42.4997 40.5 42.5005C38.636 42.5028 36.849 43.2442 35.531 44.5623C34.2129 45.8803 33.4715 47.6673 33.4692 49.5313L33.4727 49.5349ZM62.2536 32.4113L53.5697 23.4336H48.0278L42.4703 32.0489C42.2576 32.3779 41.9659 32.6484 41.6218 32.8358C41.2777 33.0231 40.8921 33.1212 40.5004 33.1212C40.1086 33.1212 39.723 33.0231 39.3789 32.8358C39.0348 32.6484 38.7431 32.3779 38.5304 32.0489L32.9729 23.4336H27.4317L18.7478 32.4113C18.5286 32.6365 18.2666 32.8157 17.9773 32.9383C17.688 33.061 17.3771 33.1247 17.0628 33.1257C16.4414 33.1247 15.8457 32.8773 15.4064 32.4378C14.9671 31.9982 14.72 31.4023 14.7195 30.7809V23.2021C11.874 22.6208 9.34573 21.0037 7.6248 18.6642C5.90386 16.3248 5.11285 13.4297 5.40513 10.5402C5.6974 7.65072 7.05213 4.97267 9.20669 3.02524C11.3612 1.07781 14.1621 -0.000271835 17.0664 5.14137e-08H63.9407C66.8448 0.000254478 69.6453 1.07871 71.7994 3.02631C73.9536 4.97391 75.3079 7.65194 75.5999 10.5413C75.8919 13.4306 75.1008 16.3255 73.3798 18.6647C71.6589 21.0039 69.1308 22.6208 66.2855 23.2021V30.7809C66.2851 31.2476 66.1454 31.7035 65.8843 32.0903C65.6232 32.4771 65.2526 32.7772 64.8199 32.9521C64.3872 33.127 63.9122 33.1688 63.4556 33.0721C62.9991 32.9753 62.5818 32.7445 62.2572 32.4092L62.2536 32.4113ZM34.2501 18.7476C34.6423 18.7472 35.0282 18.8454 35.3724 19.0334C35.7166 19.2213 36.008 19.4929 36.2196 19.823L40.5 26.4581L44.7811 19.823C44.993 19.4933 45.2844 19.2221 45.6286 19.0346C45.9728 18.847 46.3587 18.749 46.7506 18.7497H54.563C54.8771 18.7503 55.1879 18.8137 55.4771 18.9361C55.7664 19.0585 56.0282 19.2376 56.2473 19.4627L61.5973 24.9911V21.0973C61.5979 20.476 61.845 19.8803 62.2843 19.441C62.7237 19.0016 63.3194 18.7545 63.9407 18.754C65.7933 18.7354 67.5636 17.9864 68.8671 16.6698C70.1705 15.3533 70.9017 13.5755 70.9017 11.7228C70.9017 9.87018 70.1705 8.09239 68.8671 6.77582C67.5636 5.45924 65.7933 4.71027 63.9407 4.69168H17.0664C15.2138 4.71027 13.4435 5.45924 12.14 6.77582C10.8366 8.09239 10.1054 9.87018 10.1054 11.7228C10.1054 13.5755 10.8366 15.3533 12.14 16.6698C13.4435 17.9864 15.2138 18.7354 17.0664 18.754C17.6876 18.7547 18.2832 19.0019 18.7226 19.4412C19.1619 19.8805 19.409 20.4761 19.4097 21.0973V24.9911L24.757 19.469C24.976 19.2439 25.2378 19.0648 25.5271 18.9424C25.8163 18.8199 26.1271 18.7566 26.4412 18.7561L34.2501 18.7476ZM21.7503 14.0623C21.1286 14.0623 20.5324 13.8153 20.0928 13.3757C19.6532 12.9361 19.4062 12.3399 19.4062 11.7182C19.4062 11.0965 19.6532 10.5003 20.0928 10.0607C20.5324 9.62112 21.1286 9.37416 21.7503 9.37416H59.2497C59.5576 9.37416 59.8624 9.43479 60.1468 9.55259C60.4312 9.67039 60.6896 9.84305 60.9072 10.0607C61.1249 10.2784 61.2976 10.5368 61.4154 10.8212C61.5332 11.1056 61.5938 11.4104 61.5938 11.7182C61.5938 12.0261 61.5332 12.3309 61.4154 12.6153C61.2976 12.8997 61.1249 13.1581 60.9072 13.3757C60.6896 13.5934 60.4312 13.7661 60.1468 13.8839C59.8624 14.0017 59.5576 14.0623 59.2497 14.0623H21.7503Z"/>
</mask>
<path d="M2.84336 80C2.22204 79.9994 1.62632 79.7524 1.18698 79.313C0.747633 78.8737 0.500563 78.278 0.5 77.6566V75.3119C0.499401 72.7395 1.2155 70.2178 2.56797 68.0297C3.87997 65.9161 5.71774 64.1788 7.90177 62.9876C6.6443 61.655 5.8049 59.9831 5.48733 58.1785C5.16977 56.374 5.38795 54.516 6.11492 52.8341C6.84189 51.1522 8.04577 49.7202 9.57776 48.7152C11.1098 47.7101 12.9027 47.176 14.7349 47.1788C16.5672 47.1817 18.3585 47.7214 19.8873 48.7312C21.4161 49.7411 22.6156 51.1768 23.3373 52.861C24.059 54.5451 24.2714 56.4038 23.9482 58.2073C23.625 60.0108 22.7804 61.6801 21.5188 63.0089C23.0411 63.8524 24.394 64.9708 25.5089 66.3073C27.0222 62.9321 29.6223 60.1611 32.8943 58.4361C31.0709 56.8806 29.7682 54.8033 29.1621 52.4844C28.5559 50.1655 28.6753 47.7165 29.5042 45.4676C30.3331 43.2187 31.8317 41.278 33.7979 39.9073C35.764 38.5365 38.1032 37.8016 40.5 37.8016C42.8968 37.8016 45.236 38.5365 47.2021 39.9073C49.1683 41.278 50.6669 43.2187 51.4958 45.4676C52.3247 47.7165 52.4441 50.1655 51.8379 52.4844C51.2318 54.8033 49.9291 56.8806 48.1057 58.4361C51.3778 60.1599 53.9781 62.9304 55.4912 66.3051C56.6063 64.9692 57.9594 63.8516 59.4819 63.0089C58.2203 61.6799 57.3757 60.0103 57.0527 58.2066C56.7296 56.4028 56.9422 54.5439 57.6642 52.8597C58.3862 51.1755 59.5859 49.7397 61.1151 48.73C62.6442 47.7202 64.4358 47.1807 66.2682 47.1781C68.1007 47.1756 69.8937 47.71 71.4257 48.7155C72.9577 49.721 74.1614 51.1533 74.8882 52.8355C75.6149 54.5177 75.8327 56.376 75.5147 58.1807C75.1967 59.9853 74.3569 61.6572 73.0989 62.9897C75.325 64.1902 77.1869 65.9678 78.4891 68.1359C79.7914 70.304 80.486 72.7827 80.5 75.3119V77.6566C80.4994 78.278 80.2524 78.8737 79.813 79.313C79.3737 79.7524 78.778 79.9994 78.1566 80H2.84336ZM56.9064 75.3119H75.809C75.8096 74.0769 75.5627 72.8543 75.0827 71.7163C74.6027 70.5784 73.8996 69.5482 73.0147 68.6867C71.2203 66.9169 68.7988 65.9285 66.2784 65.937C63.7933 65.9404 61.411 66.9292 59.6541 68.6867C57.8972 70.4442 56.909 72.8268 56.9064 75.3119ZM28.7811 72.9685V75.3119H52.2147V72.9685C52.2388 71.4145 51.9536 69.8712 51.3757 68.4285C50.7977 66.9858 49.9385 65.6724 48.8481 64.5649C47.7577 63.4575 46.4579 62.578 45.0243 61.9776C43.5907 61.3773 42.0521 61.0681 40.4979 61.0681C38.9437 61.0681 37.405 61.3773 35.9715 61.9776C34.5379 62.578 33.2381 63.4575 32.1477 64.5649C31.0573 65.6724 30.1981 66.9858 29.6201 68.4285C29.0421 69.8712 28.7569 71.4145 28.7811 72.9685ZM5.18743 75.3119H24.0901C24.0865 72.8273 23.0981 70.4454 21.3415 68.6883C19.5849 66.9311 17.2034 65.942 14.7188 65.9377C12.2128 65.9202 9.80214 66.8972 8.0155 68.6545C6.22886 70.4118 5.21207 72.8059 5.18814 75.3119H5.18743ZM61.5973 56.5664C61.5975 57.4935 61.8725 58.3997 62.3877 59.1705C62.9029 59.9412 63.6351 60.5419 64.4916 60.8966C65.3482 61.2512 66.2907 61.3439 67.2 61.1629C68.1092 60.9819 68.9443 60.5353 69.5998 59.8797C70.2552 59.224 70.7016 58.3887 70.8823 57.4794C71.063 56.5701 70.97 55.6277 70.6151 54.7712C70.2602 53.9147 69.6593 53.1828 68.8884 52.6678C68.1175 52.1529 67.2112 51.8781 66.2841 51.8782C65.0413 51.8797 63.8499 52.3742 62.9712 53.2531C62.0926 54.132 61.5985 55.3236 61.5973 56.5664ZM10.0342 56.5664C10.0342 57.4936 10.3091 58.4 10.8243 59.171C11.3394 59.9419 12.0716 60.5428 12.9282 60.8976C13.7849 61.2525 14.7275 61.3453 15.6369 61.1644C16.5463 60.9835 17.3817 60.537 18.0373 59.8814C18.693 59.2257 19.1395 58.3904 19.3204 57.481C19.5013 56.5716 19.4084 55.6289 19.0536 54.7723C18.6987 53.9156 18.0979 53.1835 17.3269 52.6683C16.5559 52.1532 15.6495 51.8782 14.7223 51.8782C13.4788 51.8786 12.2863 52.3726 11.4067 53.2516C10.5271 54.1306 10.0325 55.3229 10.0313 56.5664H10.0342ZM33.4727 49.5349C33.4733 50.9256 33.8863 52.285 34.6594 53.441C35.4326 54.5971 36.5312 55.4979 37.8164 56.0295C39.1015 56.5612 40.5154 56.6997 41.8793 56.4278C43.2432 56.1558 44.4959 55.4855 45.4788 54.5016C46.4617 53.5176 47.1308 52.2643 47.4014 50.9002C47.672 49.536 47.532 48.1222 46.999 46.8376C46.4661 45.553 45.5642 44.4553 44.4074 43.6833C43.2505 42.9113 41.8908 42.4997 40.5 42.5005C38.636 42.5028 36.849 43.2442 35.531 44.5623C34.2129 45.8803 33.4715 47.6673 33.4692 49.5313L33.4727 49.5349ZM62.2536 32.4113L53.5697 23.4336H48.0278L42.4703 32.0489C42.2576 32.3779 41.9659 32.6484 41.6218 32.8358C41.2777 33.0231 40.8921 33.1212 40.5004 33.1212C40.1086 33.1212 39.723 33.0231 39.3789 32.8358C39.0348 32.6484 38.7431 32.3779 38.5304 32.0489L32.9729 23.4336H27.4317L18.7478 32.4113C18.5286 32.6365 18.2666 32.8157 17.9773 32.9383C17.688 33.061 17.3771 33.1247 17.0628 33.1257C16.4414 33.1247 15.8457 32.8773 15.4064 32.4378C14.9671 31.9982 14.72 31.4023 14.7195 30.7809V23.2021C11.874 22.6208 9.34573 21.0037 7.6248 18.6642C5.90386 16.3248 5.11285 13.4297 5.40513 10.5402C5.6974 7.65072 7.05213 4.97267 9.20669 3.02524C11.3612 1.07781 14.1621 -0.000271835 17.0664 5.14137e-08H63.9407C66.8448 0.000254478 69.6453 1.07871 71.7994 3.02631C73.9536 4.97391 75.3079 7.65194 75.5999 10.5413C75.8919 13.4306 75.1008 16.3255 73.3798 18.6647C71.6589 21.0039 69.1308 22.6208 66.2855 23.2021V30.7809C66.2851 31.2476 66.1454 31.7035 65.8843 32.0903C65.6232 32.4771 65.2526 32.7772 64.8199 32.9521C64.3872 33.127 63.9122 33.1688 63.4556 33.0721C62.9991 32.9753 62.5818 32.7445 62.2572 32.4092L62.2536 32.4113ZM34.2501 18.7476C34.6423 18.7472 35.0282 18.8454 35.3724 19.0334C35.7166 19.2213 36.008 19.4929 36.2196 19.823L40.5 26.4581L44.7811 19.823C44.993 19.4933 45.2844 19.2221 45.6286 19.0346C45.9728 18.847 46.3587 18.749 46.7506 18.7497H54.563C54.8771 18.7503 55.1879 18.8137 55.4771 18.9361C55.7664 19.0585 56.0282 19.2376 56.2473 19.4627L61.5973 24.9911V21.0973C61.5979 20.476 61.845 19.8803 62.2843 19.441C62.7237 19.0016 63.3194 18.7545 63.9407 18.754C65.7933 18.7354 67.5636 17.9864 68.8671 16.6698C70.1705 15.3533 70.9017 13.5755 70.9017 11.7228C70.9017 9.87018 70.1705 8.09239 68.8671 6.77582C67.5636 5.45924 65.7933 4.71027 63.9407 4.69168H17.0664C15.2138 4.71027 13.4435 5.45924 12.14 6.77582C10.8366 8.09239 10.1054 9.87018 10.1054 11.7228C10.1054 13.5755 10.8366 15.3533 12.14 16.6698C13.4435 17.9864 15.2138 18.7354 17.0664 18.754C17.6876 18.7547 18.2832 19.0019 18.7226 19.4412C19.1619 19.8805 19.409 20.4761 19.4097 21.0973V24.9911L24.757 19.469C24.976 19.2439 25.2378 19.0648 25.5271 18.9424C25.8163 18.8199 26.1271 18.7566 26.4412 18.7561L34.2501 18.7476ZM21.7503 14.0623C21.1286 14.0623 20.5324 13.8153 20.0928 13.3757C19.6532 12.9361 19.4062 12.3399 19.4062 11.7182C19.4062 11.0965 19.6532 10.5003 20.0928 10.0607C20.5324 9.62112 21.1286 9.37416 21.7503 9.37416H59.2497C59.5576 9.37416 59.8624 9.43479 60.1468 9.55259C60.4312 9.67039 60.6896 9.84305 60.9072 10.0607C61.1249 10.2784 61.2976 10.5368 61.4154 10.8212C61.5332 11.1056 61.5938 11.4104 61.5938 11.7182C61.5938 12.0261 61.5332 12.3309 61.4154 12.6153C61.2976 12.8997 61.1249 13.1581 60.9072 13.3757C60.6896 13.5934 60.4312 13.7661 60.1468 13.8839C59.8624 14.0017 59.5576 14.0623 59.2497 14.0623H21.7503Z" fill="#151515" stroke="white" stroke-width="2" mask="url(#path-1-inside-1_1551_402)"/>
</g>
<defs>
<clipPath id="clip0_1551_402">
<rect width="80" height="80" fill="white" transform="translate(0.5)"/>
</clipPath>
</defs>
</svg>
