<svg width="84" height="83" viewBox="0 0 84 83" fill="none" xmlns="http://www.w3.org/2000/svg">
<g clip-path="url(#clip0_1551_398)">
<mask id="path-1-inside-1_1551_398" fill="white">
<path d="M49.8736 79.9979C49.2521 79.9975 48.6561 79.7505 48.2165 79.3112C47.7769 78.8719 47.5296 78.2761 47.5288 77.6546V72.8101C47.5274 69.7726 48.3724 66.7947 49.9691 64.2107C51.5218 61.7009 53.7181 59.6527 56.33 58.2788C54.818 56.9899 53.659 55.3374 52.962 53.4768C52.265 51.6163 52.0531 49.609 52.3461 47.6439C52.6392 45.6788 53.4275 43.8207 54.637 42.2444C55.8465 40.6682 57.4373 39.4257 59.2595 38.634L53.5959 32.9704H45.1862C43.3221 32.9684 41.5348 32.2269 40.2166 30.9087C38.8985 29.5906 38.157 27.8033 38.1549 25.9391V7.18777C38.1542 5.29836 38.8941 3.48394 40.2158 2.13375C40.8575 1.46119 41.6287 0.925442 42.4829 0.558744C43.3371 0.192046 44.2567 0.00198441 45.1862 0L73.3108 0C75.2093 0.0251166 77.0229 0.790484 78.3653 2.13307C79.7078 3.47565 80.4729 5.28933 80.4979 7.18777V25.937C80.4959 26.8761 80.302 27.8049 79.9278 28.6662C79.5537 29.5276 79.0073 30.3033 78.3224 30.9457C76.9763 32.2428 75.1801 32.9677 73.3108 32.9683H66.2795V37.8914C68.4276 38.3286 70.4098 39.36 72.0007 40.8682C73.5915 42.3764 74.7271 44.3008 75.2783 46.4225C75.8294 48.5442 75.774 50.778 75.1183 52.8698C74.4626 54.9616 73.233 56.8273 71.5693 58.2547C74.2129 59.6191 76.4415 61.6685 78.0222 64.1887C79.6419 66.7729 80.5006 69.7611 80.5 72.8108V77.6553C80.4994 78.2766 80.2524 78.8723 79.813 79.3116C79.3737 79.751 78.778 79.998 78.1567 79.9986L49.8736 79.9979ZM52.2169 72.8101V75.3099H75.8099V72.8101C75.8099 69.6815 74.567 66.681 72.3547 64.4687C70.1425 62.2564 67.142 61.0136 64.0134 61.0136C60.8847 61.0136 57.8842 62.2564 55.672 64.4687C53.4597 66.681 52.2169 69.6815 52.2169 72.8101ZM63.9319 42.3429C62.5413 42.3431 61.1819 42.7556 60.0257 43.5283C58.8695 44.301 57.9684 45.3992 57.4364 46.684C56.9043 47.9688 56.7651 49.3825 57.0365 50.7464C57.3079 52.1103 57.9776 53.3631 58.961 54.3464C59.9444 55.3297 61.1973 55.9993 62.5612 56.2705C63.9251 56.5418 65.3388 56.4025 66.6236 55.8703C67.9084 55.3381 69.0064 54.4369 69.779 53.2806C70.5516 52.1243 70.964 50.7649 70.964 49.3743C70.9619 47.5099 70.2204 45.7226 68.902 44.4044C67.5837 43.0862 65.7963 42.3448 63.9319 42.3429ZM42.8429 7.18777V25.937C42.8437 26.5583 43.0908 27.1539 43.5301 27.5931C43.9694 28.0324 44.565 28.2796 45.1862 28.2803H54.5602C54.8681 28.2792 55.1731 28.3392 55.4577 28.457C55.7422 28.5748 56.0004 28.7479 56.2175 28.9663L61.5915 34.3403V30.6236C61.5922 30.0021 61.8395 29.4063 62.2791 28.967C62.7187 28.5276 63.3147 28.2807 63.9362 28.2803H73.3108C73.9483 28.2843 74.5631 28.0434 75.0282 27.6074C75.4934 27.1714 75.7734 26.5735 75.8106 25.937V7.18777C75.7782 6.53527 75.5044 5.91809 75.0425 5.45613C74.5805 4.99417 73.9633 4.72041 73.3108 4.68802H45.1862C44.5498 4.72536 43.952 5.00545 43.516 5.47054C43.0801 5.93564 42.8391 6.55029 42.8429 7.18777ZM7.53132 79.9979C6.60023 79.9965 5.67907 79.8065 4.82345 79.4392C3.96783 79.072 3.19549 78.5352 2.55305 77.8613C1.23489 76.5106 0.497952 74.6974 0.500004 72.8101V54.0616C0.502065 52.1974 1.24352 50.4101 2.56171 49.092C3.87989 47.7738 5.66713 47.0323 7.53132 47.0303H14.7184V42.3429H2.8433C2.22187 42.3424 1.62606 42.0952 1.18671 41.6557C0.74736 41.2163 0.500379 40.6204 0.500004 39.9989V35.3116C0.499061 32.2711 1.35221 29.2915 2.96224 26.7122C4.53464 24.197 6.75142 22.1484 9.3826 20.7789C9.11712 20.5552 8.90544 20.3641 8.71642 20.1793C7.60073 19.103 6.71324 17.813 6.10691 16.3863C5.50058 14.9595 5.18783 13.4253 5.18731 11.8751C5.21412 8.73403 6.47375 5.72921 8.69482 3.50801C10.9159 1.2868 13.9206 0.0269919 17.0617 0C18.6075 4.04888e-05 20.1376 0.31056 21.5612 0.913138C22.9848 1.51572 24.2728 2.39807 25.3489 3.50787C27.5503 5.73586 28.7831 8.74295 28.7789 11.8751C28.7777 13.5683 28.4093 15.2411 27.6992 16.7783C26.9891 18.3154 25.9542 19.6803 24.6657 20.7789C27.2778 22.1525 29.4743 24.2008 31.0266 26.7108C32.6235 29.295 33.4685 32.2731 33.4669 35.3109V39.9989C33.4662 40.6204 33.2188 41.2162 32.7793 41.6556C32.3397 42.0949 31.7437 42.3419 31.1222 42.3422H22.7203L27.4069 47.0303H35.8116C37.6758 47.0323 39.4631 47.7738 40.7812 49.092C42.0994 50.4101 42.8409 52.1974 42.8429 54.0616V72.8101C42.8437 74.6986 42.1053 76.5125 40.7857 77.8634C40.1434 78.5363 39.3716 79.0723 38.5168 79.4391C37.662 79.8059 36.7418 79.996 35.8116 79.9979H7.53132ZM5.18802 54.0616V72.8101C5.18403 73.4476 5.4249 74.0624 5.86092 74.5275C6.29694 74.9926 6.89486 75.2727 7.53132 75.3099H35.8116C36.4481 75.2727 37.046 74.9926 37.482 74.5275C37.9181 74.0624 38.1589 73.4476 38.1549 72.8101V54.0616C38.1546 53.4401 37.9076 52.8441 37.4683 52.4045C37.0289 51.9649 36.4331 51.7176 35.8116 51.7169H26.437C26.129 51.7177 25.8239 51.6576 25.5393 51.5398C25.2548 51.4221 24.9963 51.2491 24.779 51.0309L19.4064 45.6568V49.3736C19.4057 49.995 19.1583 50.5909 18.7187 51.0302C18.2791 51.4695 17.6832 51.7165 17.0617 51.7169H7.53132C6.90982 51.7176 6.31402 51.9649 5.87469 52.4045C5.43535 52.8441 5.1884 53.4401 5.18802 54.0616ZM5.18802 35.3116V37.6549H28.7803V35.3116C28.7803 32.183 27.5375 29.1825 25.3252 26.9702C23.1129 24.758 20.1124 23.5151 16.9838 23.5151C13.8552 23.5151 10.8547 24.758 8.64243 26.9702C6.43016 29.1825 5.18802 32.183 5.18802 35.3116ZM9.87462 11.8786C9.92019 13.7562 10.697 15.5417 12.0395 16.8551C13.3821 18.1684 15.1843 18.9057 17.0624 18.9099C18.9266 18.9079 20.7138 18.1664 22.032 16.8482C23.3502 15.5301 24.0917 13.7428 24.0937 11.8786C24.0902 9.99992 23.3531 8.19686 22.0396 6.85368C20.726 5.5105 18.9398 4.73342 17.0617 4.68802C15.1634 4.71313 13.3499 5.4784 12.0074 6.82083C10.665 8.16326 9.89973 9.97676 9.87462 11.8751V11.8786ZM12.3751 70.4703C11.7534 70.4703 11.1572 70.2234 10.7176 69.7838C10.278 69.3442 10.0311 68.748 10.0311 68.1263C10.0311 67.5047 10.278 66.9085 10.7176 66.4689C11.1572 66.0293 11.7534 65.7823 12.3751 65.7823H31.1236C31.7453 65.7823 32.3415 66.0293 32.7811 66.4689C33.2207 66.9085 33.4676 67.5047 33.4676 68.1263C33.4676 68.748 33.2207 69.3442 32.7811 69.7838C32.3415 70.2234 31.7453 70.4703 31.1236 70.4703H12.3751ZM12.3751 61.0957C11.7534 61.0957 11.1572 60.8488 10.7176 60.4092C10.278 59.9696 10.0311 59.3734 10.0311 58.7517C10.0311 58.13 10.278 57.5338 10.7176 57.0942C11.1572 56.6547 11.7534 56.4077 12.3751 56.4077H31.1236C31.7453 56.4077 32.3415 56.6547 32.7811 57.0942C33.2207 57.5338 33.4676 58.13 33.4676 58.7517C33.4676 59.3734 33.2207 59.9696 32.7811 60.4092C32.3415 60.8488 31.7453 61.0957 31.1236 61.0957H12.3751ZM49.8736 23.5958C49.2521 23.5958 48.656 23.3489 48.2166 22.9095C47.7771 22.47 47.5303 21.874 47.5303 21.2525C47.5303 20.6311 47.7771 20.035 48.2166 19.5956C48.656 19.1561 49.2521 18.9092 49.8736 18.9092H68.6235C69.245 18.9092 69.841 19.1561 70.2805 19.5956C70.7199 20.035 70.9668 20.6311 70.9668 21.2525C70.9668 21.874 70.7199 22.47 70.2805 22.9095C69.841 23.3489 69.245 23.5958 68.6235 23.5958H49.8736ZM49.8736 14.2212C49.2519 14.2212 48.6557 13.9743 48.2161 13.5347C47.7765 13.0951 47.5295 12.4989 47.5295 11.8772C47.5295 11.2555 47.7765 10.6593 48.2161 10.2197C48.6557 9.78016 49.2519 9.5332 49.8736 9.5332H68.6235C69.2452 9.5332 69.8414 9.78016 70.281 10.2197C70.7206 10.6593 70.9675 11.2555 70.9675 11.8772C70.9675 12.4989 70.7206 13.0951 70.281 13.5347C69.8414 13.9743 69.2452 14.2212 68.6235 14.2212H49.8736Z"/>
</mask>
<path d="M49.8736 79.9979C49.2521 79.9975 48.6561 79.7505 48.2165 79.3112C47.7769 78.8719 47.5296 78.2761 47.5288 77.6546V72.8101C47.5274 69.7726 48.3724 66.7947 49.9691 64.2107C51.5218 61.7009 53.7181 59.6527 56.33 58.2788C54.818 56.9899 53.659 55.3374 52.962 53.4768C52.265 51.6163 52.0531 49.609 52.3461 47.6439C52.6392 45.6788 53.4275 43.8207 54.637 42.2444C55.8465 40.6682 57.4373 39.4257 59.2595 38.634L53.5959 32.9704H45.1862C43.3221 32.9684 41.5348 32.2269 40.2166 30.9087C38.8985 29.5906 38.157 27.8033 38.1549 25.9391V7.18777C38.1542 5.29836 38.8941 3.48394 40.2158 2.13375C40.8575 1.46119 41.6287 0.925442 42.4829 0.558744C43.3371 0.192046 44.2567 0.00198441 45.1862 0L73.3108 0C75.2093 0.0251166 77.0229 0.790484 78.3653 2.13307C79.7078 3.47565 80.4729 5.28933 80.4979 7.18777V25.937C80.4959 26.8761 80.302 27.8049 79.9278 28.6662C79.5537 29.5276 79.0073 30.3033 78.3224 30.9457C76.9763 32.2428 75.1801 32.9677 73.3108 32.9683H66.2795V37.8914C68.4276 38.3286 70.4098 39.36 72.0007 40.8682C73.5915 42.3764 74.7271 44.3008 75.2783 46.4225C75.8294 48.5442 75.774 50.778 75.1183 52.8698C74.4626 54.9616 73.233 56.8273 71.5693 58.2547C74.2129 59.6191 76.4415 61.6685 78.0222 64.1887C79.6419 66.7729 80.5006 69.7611 80.5 72.8108V77.6553C80.4994 78.2766 80.2524 78.8723 79.813 79.3116C79.3737 79.751 78.778 79.998 78.1567 79.9986L49.8736 79.9979ZM52.2169 72.8101V75.3099H75.8099V72.8101C75.8099 69.6815 74.567 66.681 72.3547 64.4687C70.1425 62.2564 67.142 61.0136 64.0134 61.0136C60.8847 61.0136 57.8842 62.2564 55.672 64.4687C53.4597 66.681 52.2169 69.6815 52.2169 72.8101ZM63.9319 42.3429C62.5413 42.3431 61.1819 42.7556 60.0257 43.5283C58.8695 44.301 57.9684 45.3992 57.4364 46.684C56.9043 47.9688 56.7651 49.3825 57.0365 50.7464C57.3079 52.1103 57.9776 53.3631 58.961 54.3464C59.9444 55.3297 61.1973 55.9993 62.5612 56.2705C63.9251 56.5418 65.3388 56.4025 66.6236 55.8703C67.9084 55.3381 69.0064 54.4369 69.779 53.2806C70.5516 52.1243 70.964 50.7649 70.964 49.3743C70.9619 47.5099 70.2204 45.7226 68.902 44.4044C67.5837 43.0862 65.7963 42.3448 63.9319 42.3429ZM42.8429 7.18777V25.937C42.8437 26.5583 43.0908 27.1539 43.5301 27.5931C43.9694 28.0324 44.565 28.2796 45.1862 28.2803H54.5602C54.8681 28.2792 55.1731 28.3392 55.4577 28.457C55.7422 28.5748 56.0004 28.7479 56.2175 28.9663L61.5915 34.3403V30.6236C61.5922 30.0021 61.8395 29.4063 62.2791 28.967C62.7187 28.5276 63.3147 28.2807 63.9362 28.2803H73.3108C73.9483 28.2843 74.5631 28.0434 75.0282 27.6074C75.4934 27.1714 75.7734 26.5735 75.8106 25.937V7.18777C75.7782 6.53527 75.5044 5.91809 75.0425 5.45613C74.5805 4.99417 73.9633 4.72041 73.3108 4.68802H45.1862C44.5498 4.72536 43.952 5.00545 43.516 5.47054C43.0801 5.93564 42.8391 6.55029 42.8429 7.18777ZM7.53132 79.9979C6.60023 79.9965 5.67907 79.8065 4.82345 79.4392C3.96783 79.072 3.19549 78.5352 2.55305 77.8613C1.23489 76.5106 0.497952 74.6974 0.500004 72.8101V54.0616C0.502065 52.1974 1.24352 50.4101 2.56171 49.092C3.87989 47.7738 5.66713 47.0323 7.53132 47.0303H14.7184V42.3429H2.8433C2.22187 42.3424 1.62606 42.0952 1.18671 41.6557C0.74736 41.2163 0.500379 40.6204 0.500004 39.9989V35.3116C0.499061 32.2711 1.35221 29.2915 2.96224 26.7122C4.53464 24.197 6.75142 22.1484 9.3826 20.7789C9.11712 20.5552 8.90544 20.3641 8.71642 20.1793C7.60073 19.103 6.71324 17.813 6.10691 16.3863C5.50058 14.9595 5.18783 13.4253 5.18731 11.8751C5.21412 8.73403 6.47375 5.72921 8.69482 3.50801C10.9159 1.2868 13.9206 0.0269919 17.0617 0C18.6075 4.04888e-05 20.1376 0.31056 21.5612 0.913138C22.9848 1.51572 24.2728 2.39807 25.3489 3.50787C27.5503 5.73586 28.7831 8.74295 28.7789 11.8751C28.7777 13.5683 28.4093 15.2411 27.6992 16.7783C26.9891 18.3154 25.9542 19.6803 24.6657 20.7789C27.2778 22.1525 29.4743 24.2008 31.0266 26.7108C32.6235 29.295 33.4685 32.2731 33.4669 35.3109V39.9989C33.4662 40.6204 33.2188 41.2162 32.7793 41.6556C32.3397 42.0949 31.7437 42.3419 31.1222 42.3422H22.7203L27.4069 47.0303H35.8116C37.6758 47.0323 39.4631 47.7738 40.7812 49.092C42.0994 50.4101 42.8409 52.1974 42.8429 54.0616V72.8101C42.8437 74.6986 42.1053 76.5125 40.7857 77.8634C40.1434 78.5363 39.3716 79.0723 38.5168 79.4391C37.662 79.8059 36.7418 79.996 35.8116 79.9979H7.53132ZM5.18802 54.0616V72.8101C5.18403 73.4476 5.4249 74.0624 5.86092 74.5275C6.29694 74.9926 6.89486 75.2727 7.53132 75.3099H35.8116C36.4481 75.2727 37.046 74.9926 37.482 74.5275C37.9181 74.0624 38.1589 73.4476 38.1549 72.8101V54.0616C38.1546 53.4401 37.9076 52.8441 37.4683 52.4045C37.0289 51.9649 36.4331 51.7176 35.8116 51.7169H26.437C26.129 51.7177 25.8239 51.6576 25.5393 51.5398C25.2548 51.4221 24.9963 51.2491 24.779 51.0309L19.4064 45.6568V49.3736C19.4057 49.995 19.1583 50.5909 18.7187 51.0302C18.2791 51.4695 17.6832 51.7165 17.0617 51.7169H7.53132C6.90982 51.7176 6.31402 51.9649 5.87469 52.4045C5.43535 52.8441 5.1884 53.4401 5.18802 54.0616ZM5.18802 35.3116V37.6549H28.7803V35.3116C28.7803 32.183 27.5375 29.1825 25.3252 26.9702C23.1129 24.758 20.1124 23.5151 16.9838 23.5151C13.8552 23.5151 10.8547 24.758 8.64243 26.9702C6.43016 29.1825 5.18802 32.183 5.18802 35.3116ZM9.87462 11.8786C9.92019 13.7562 10.697 15.5417 12.0395 16.8551C13.3821 18.1684 15.1843 18.9057 17.0624 18.9099C18.9266 18.9079 20.7138 18.1664 22.032 16.8482C23.3502 15.5301 24.0917 13.7428 24.0937 11.8786C24.0902 9.99992 23.3531 8.19686 22.0396 6.85368C20.726 5.5105 18.9398 4.73342 17.0617 4.68802C15.1634 4.71313 13.3499 5.4784 12.0074 6.82083C10.665 8.16326 9.89973 9.97676 9.87462 11.8751V11.8786ZM12.3751 70.4703C11.7534 70.4703 11.1572 70.2234 10.7176 69.7838C10.278 69.3442 10.0311 68.748 10.0311 68.1263C10.0311 67.5047 10.278 66.9085 10.7176 66.4689C11.1572 66.0293 11.7534 65.7823 12.3751 65.7823H31.1236C31.7453 65.7823 32.3415 66.0293 32.7811 66.4689C33.2207 66.9085 33.4676 67.5047 33.4676 68.1263C33.4676 68.748 33.2207 69.3442 32.7811 69.7838C32.3415 70.2234 31.7453 70.4703 31.1236 70.4703H12.3751ZM12.3751 61.0957C11.7534 61.0957 11.1572 60.8488 10.7176 60.4092C10.278 59.9696 10.0311 59.3734 10.0311 58.7517C10.0311 58.13 10.278 57.5338 10.7176 57.0942C11.1572 56.6547 11.7534 56.4077 12.3751 56.4077H31.1236C31.7453 56.4077 32.3415 56.6547 32.7811 57.0942C33.2207 57.5338 33.4676 58.13 33.4676 58.7517C33.4676 59.3734 33.2207 59.9696 32.7811 60.4092C32.3415 60.8488 31.7453 61.0957 31.1236 61.0957H12.3751ZM49.8736 23.5958C49.2521 23.5958 48.656 23.3489 48.2166 22.9095C47.7771 22.47 47.5303 21.874 47.5303 21.2525C47.5303 20.6311 47.7771 20.035 48.2166 19.5956C48.656 19.1561 49.2521 18.9092 49.8736 18.9092H68.6235C69.245 18.9092 69.841 19.1561 70.2805 19.5956C70.7199 20.035 70.9668 20.6311 70.9668 21.2525C70.9668 21.874 70.7199 22.47 70.2805 22.9095C69.841 23.3489 69.245 23.5958 68.6235 23.5958H49.8736ZM49.8736 14.2212C49.2519 14.2212 48.6557 13.9743 48.2161 13.5347C47.7765 13.0951 47.5295 12.4989 47.5295 11.8772C47.5295 11.2555 47.7765 10.6593 48.2161 10.2197C48.6557 9.78016 49.2519 9.5332 49.8736 9.5332H68.6235C69.2452 9.5332 69.8414 9.78016 70.281 10.2197C70.7206 10.6593 70.9675 11.2555 70.9675 11.8772C70.9675 12.4989 70.7206 13.0951 70.281 13.5347C69.8414 13.9743 69.2452 14.2212 68.6235 14.2212H49.8736Z" fill="#151515" stroke="white" stroke-width="2" mask="url(#path-1-inside-1_1551_398)"/>
</g>
<defs>
<clipPath id="clip0_1551_398">
<rect width="83" height="83" fill="white" transform="translate(0.5)"/>
</clipPath>
</defs>
</svg>
